<?xml version="1.0" encoding="UTF-8" standalone="no"?>
<!-- Uploaded to: SVG Repo, www.svgrepo.com, Generator: SVG Repo Mixer Tools -->

<svg
   fill="#000000"
   height="800px"
   width="800px"
   version="1.1"
   id="Layer_1"
   viewBox="0 0 512 512"
   xml:space="preserve"
   sodipodi:docname="normal.svg"
   inkscape:version="1.3 (0e150ed6c4, 2023-07-21)"
   xmlns:inkscape="http://www.inkscape.org/namespaces/inkscape"
   xmlns:sodipodi="http://sodipodi.sourceforge.net/DTD/sodipodi-0.dtd"
   xmlns="http://www.w3.org/2000/svg"
   xmlns:svg="http://www.w3.org/2000/svg"><defs
   id="defs20" /><sodipodi:namedview
   id="namedview20"
   pagecolor="#505050"
   bordercolor="#eeeeee"
   borderopacity="1"
   inkscape:showpageshadow="0"
   inkscape:pageopacity="0"
   inkscape:pagecheckerboard="0"
   inkscape:deskcolor="#505050"
   inkscape:zoom="0.97125"
   inkscape:cx="399.4852"
   inkscape:cy="317.63192"
   inkscape:window-width="1920"
   inkscape:window-height="991"
   inkscape:window-x="-9"
   inkscape:window-y="-9"
   inkscape:window-maximized="1"
   inkscape:current-layer="Layer_1" />&#10;<circle
   style="fill:#ffff00;stroke:#dddddd;stroke-width:1.44831;stroke-linecap:round"
   id="path20"
   cx="257.64737"
   cy="255.67055"
   r="167.29243" /><g
   id="g2">&#10;	<g
   id="g1">&#10;		<path
   d="M255.999,73.468c-100.649,0-182.533,81.883-182.533,182.533s81.883,182.533,182.533,182.533    s182.533-81.883,182.533-182.533S356.648,73.468,255.999,73.468z M255.999,421.137c-91.056,0-165.137-74.08-165.137-165.137    s74.08-165.137,165.137-165.137S421.136,164.944,421.136,256S347.056,421.137,255.999,421.137z"
   id="path1" />&#10;	</g>&#10;</g>&#10;<g
   id="g4">&#10;	<g
   id="g3">&#10;		<path
   d="M255.999,108.261c-4.805,0-8.698,3.893-8.698,8.698v278.083c0,4.805,3.893,8.698,8.698,8.698    c81.464,0,147.74-66.275,147.74-147.74S337.464,108.261,255.999,108.261z M264.698,386.058V125.943    c67.834,4.489,121.646,61.106,121.646,130.058S332.532,381.568,264.698,386.058z"
   id="path2" />&#10;	</g>&#10;</g>&#10;<g
   id="g6">&#10;	<g
   id="g5">&#10;		<path
   d="M255.999,0.001c-4.805,0-8.698,3.893-8.698,8.698v40.14c0,4.805,3.894,8.698,8.698,8.698c4.805,0,8.698-3.893,8.698-8.698    V8.699C264.698,3.894,260.804,0.001,255.999,0.001z"
   id="path4" />&#10;	</g>&#10;</g>&#10;<g
   id="g8">&#10;	<g
   id="g7">&#10;		<path
   d="M437.02,74.981c-3.398-3.395-8.905-3.395-12.303,0l-28.384,28.384c-3.397,3.398-3.397,8.905,0,12.301    c1.699,1.698,3.926,2.547,6.151,2.547s4.452-0.849,6.151-2.547l28.384-28.384C440.417,83.884,440.417,78.378,437.02,74.981z"
   id="path6" />&#10;	</g>&#10;</g>&#10;<g
   id="g10">&#10;	<g
   id="g9">&#10;		<path
   d="M503.302,247.302h-40.14c-4.805,0-8.698,3.893-8.698,8.698c0,4.805,3.893,8.698,8.698,8.698h40.14    c4.805,0,8.698-3.893,8.698-8.698C512,251.195,508.106,247.302,503.302,247.302z"
   id="path8" />&#10;	</g>&#10;</g>&#10;<g
   id="g12">&#10;	<g
   id="g11">&#10;		<path
   d="M437.021,424.718l-28.385-28.384c-3.398-3.396-8.905-3.396-12.301,0c-3.397,3.398-3.397,8.905,0,12.301l28.384,28.384    c1.699,1.698,3.926,2.547,6.151,2.547s4.452-0.849,6.151-2.547C440.418,433.621,440.418,428.115,437.021,424.718z"
   id="path10" />&#10;	</g>&#10;</g>&#10;<g
   id="g14">&#10;	<g
   id="g13">&#10;		<path
   d="M255.999,454.463c-4.805,0-8.698,3.893-8.698,8.698v40.14c0,4.805,3.893,8.698,8.698,8.698    c4.805,0,8.698-3.893,8.698-8.698v-40.14C264.698,458.358,260.804,454.463,255.999,454.463z"
   id="path12" />&#10;	</g>&#10;</g>&#10;<g
   id="g16">&#10;	<g
   id="g15">&#10;		<path
   d="M115.666,396.334c-3.398-3.396-8.905-3.396-12.303,0L74.98,424.718c-3.397,3.398-3.397,8.905,0,12.301    c1.699,1.698,3.926,2.547,6.151,2.547c2.226,0,4.452-0.849,6.151-2.547l28.384-28.384    C119.063,405.238,119.063,399.731,115.666,396.334z"
   id="path14" />&#10;	</g>&#10;</g>&#10;<g
   id="g18">&#10;	<g
   id="g17">&#10;		<path
   d="M48.838,247.302H8.698C3.893,247.302,0,251.195,0,256c0,4.805,3.893,8.698,8.698,8.698h40.14    c4.805,0,8.698-3.893,8.698-8.698C57.536,251.195,53.643,247.302,48.838,247.302z"
   id="path16" />&#10;	</g>&#10;</g>&#10;<g
   id="g20">&#10;	<g
   id="g19">&#10;		<path
   d="M115.666,103.364L87.283,74.981c-3.398-3.396-8.905-3.396-12.301,0c-3.397,3.398-3.397,8.905,0,12.301l28.383,28.384    c1.699,1.698,3.926,2.547,6.151,2.547c2.226,0,4.452-0.849,6.151-2.547C119.063,112.268,119.063,106.761,115.666,103.364z"
   id="path18" />&#10;	</g>&#10;</g>&#10;</svg>
